<mxfile host="app.diagrams.net" modified="2023-06-27T06:20:18.945Z" agent="Mozilla/5.0 (Macintosh; Intel Mac OS X 10_15_7) AppleWebKit/537.36 (KHTML, like Gecko) Chrome/114.0.0.0 Safari/537.36" etag="C8bkfY2I396gbDcP76qY" version="21.5.0" type="github">
  <diagram name="Page-1" id="_yWuWE-VHlduHsox6n4H">
    <mxGraphModel dx="1434" dy="711" grid="1" gridSize="10" guides="1" tooltips="1" connect="1" arrows="1" fold="1" page="1" pageScale="1" pageWidth="850" pageHeight="1100" math="0" shadow="0">
      <root>
        <mxCell id="0" />
        <mxCell id="1" parent="0" />
        <mxCell id="Ds1bHX4ajMFpXZNCiG3D-3" value="VPC" style="sketch=0;outlineConnect=0;gradientColor=none;html=1;whiteSpace=wrap;fontSize=12;fontStyle=0;shape=mxgraph.aws4.group;grIcon=mxgraph.aws4.group_vpc;strokeColor=#879196;fillColor=none;verticalAlign=top;align=left;spacingLeft=30;fontColor=#879196;dashed=0;" vertex="1" parent="1">
          <mxGeometry x="206.5" y="117" width="430" height="360" as="geometry" />
        </mxCell>
        <mxCell id="Ds1bHX4ajMFpXZNCiG3D-75" style="edgeStyle=orthogonalEdgeStyle;rounded=0;orthogonalLoop=1;jettySize=auto;html=1;entryX=0;entryY=0.5;entryDx=0;entryDy=0;entryPerimeter=0;" edge="1" parent="1" source="Ds1bHX4ajMFpXZNCiG3D-4" target="Ds1bHX4ajMFpXZNCiG3D-8">
          <mxGeometry relative="1" as="geometry" />
        </mxCell>
        <mxCell id="Ds1bHX4ajMFpXZNCiG3D-76" style="edgeStyle=orthogonalEdgeStyle;rounded=0;orthogonalLoop=1;jettySize=auto;html=1;" edge="1" parent="1" source="Ds1bHX4ajMFpXZNCiG3D-4" target="Ds1bHX4ajMFpXZNCiG3D-7">
          <mxGeometry relative="1" as="geometry" />
        </mxCell>
        <mxCell id="Ds1bHX4ajMFpXZNCiG3D-77" style="edgeStyle=orthogonalEdgeStyle;rounded=0;orthogonalLoop=1;jettySize=auto;html=1;" edge="1" parent="1" source="Ds1bHX4ajMFpXZNCiG3D-4" target="Ds1bHX4ajMFpXZNCiG3D-68">
          <mxGeometry relative="1" as="geometry" />
        </mxCell>
        <mxCell id="Ds1bHX4ajMFpXZNCiG3D-4" value="Amazon EKS" style="sketch=0;outlineConnect=0;fontColor=#232F3E;gradientColor=none;strokeColor=#ffffff;fillColor=#232F3E;dashed=0;verticalLabelPosition=middle;verticalAlign=bottom;align=center;html=1;whiteSpace=wrap;fontSize=10;fontStyle=1;spacing=3;shape=mxgraph.aws4.productIcon;prIcon=mxgraph.aws4.eks;" vertex="1" parent="1">
          <mxGeometry x="383" y="239" width="70" height="90" as="geometry" />
        </mxCell>
        <mxCell id="Ds1bHX4ajMFpXZNCiG3D-7" value="" style="sketch=0;points=[[0,0,0],[0.25,0,0],[0.5,0,0],[0.75,0,0],[1,0,0],[0,1,0],[0.25,1,0],[0.5,1,0],[0.75,1,0],[1,1,0],[0,0.25,0],[0,0.5,0],[0,0.75,0],[1,0.25,0],[1,0.5,0],[1,0.75,0]];outlineConnect=0;fontColor=#232F3E;gradientColor=#F78E04;gradientDirection=north;fillColor=#D05C17;strokeColor=#ffffff;dashed=0;verticalLabelPosition=bottom;verticalAlign=top;align=center;html=1;fontSize=12;fontStyle=0;aspect=fixed;shape=mxgraph.aws4.resourceIcon;resIcon=mxgraph.aws4.ec2;" vertex="1" parent="1">
          <mxGeometry x="520" y="280" width="40" height="40" as="geometry" />
        </mxCell>
        <mxCell id="Ds1bHX4ajMFpXZNCiG3D-8" value="" style="sketch=0;points=[[0,0,0],[0.25,0,0],[0.5,0,0],[0.75,0,0],[1,0,0],[0,1,0],[0.25,1,0],[0.5,1,0],[0.75,1,0],[1,1,0],[0,0.25,0],[0,0.5,0],[0,0.75,0],[1,0.25,0],[1,0.5,0],[1,0.75,0]];outlineConnect=0;fontColor=#232F3E;gradientColor=#F78E04;gradientDirection=north;fillColor=#D05C17;strokeColor=#ffffff;dashed=0;verticalLabelPosition=bottom;verticalAlign=top;align=center;html=1;fontSize=12;fontStyle=0;aspect=fixed;shape=mxgraph.aws4.resourceIcon;resIcon=mxgraph.aws4.ec2;" vertex="1" parent="1">
          <mxGeometry x="520" y="240" width="40" height="40" as="geometry" />
        </mxCell>
        <mxCell id="Ds1bHX4ajMFpXZNCiG3D-12" style="edgeStyle=orthogonalEdgeStyle;rounded=0;orthogonalLoop=1;jettySize=auto;html=1;" edge="1" parent="1" source="Ds1bHX4ajMFpXZNCiG3D-23" target="Ds1bHX4ajMFpXZNCiG3D-4">
          <mxGeometry relative="1" as="geometry">
            <mxPoint x="414.4000000000001" y="60" as="sourcePoint" />
          </mxGeometry>
        </mxCell>
        <mxCell id="Ds1bHX4ajMFpXZNCiG3D-14" style="edgeStyle=orthogonalEdgeStyle;rounded=0;orthogonalLoop=1;jettySize=auto;html=1;" edge="1" parent="1" source="Ds1bHX4ajMFpXZNCiG3D-15" target="Ds1bHX4ajMFpXZNCiG3D-13">
          <mxGeometry relative="1" as="geometry" />
        </mxCell>
        <mxCell id="Ds1bHX4ajMFpXZNCiG3D-13" value="" style="sketch=0;points=[[0,0,0],[0.25,0,0],[0.5,0,0],[0.75,0,0],[1,0,0],[0,1,0],[0.25,1,0],[0.5,1,0],[0.75,1,0],[1,1,0],[0,0.25,0],[0,0.5,0],[0,0.75,0],[1,0.25,0],[1,0.5,0],[1,0.75,0]];outlineConnect=0;fontColor=#232F3E;gradientColor=#60A337;gradientDirection=north;fillColor=#277116;strokeColor=#ffffff;dashed=0;verticalLabelPosition=bottom;verticalAlign=top;align=center;html=1;fontSize=12;fontStyle=0;aspect=fixed;shape=mxgraph.aws4.resourceIcon;resIcon=mxgraph.aws4.s3;" vertex="1" parent="1">
          <mxGeometry x="522" y="161" width="38" height="38" as="geometry" />
        </mxCell>
        <mxCell id="Ds1bHX4ajMFpXZNCiG3D-16" value="" style="edgeStyle=orthogonalEdgeStyle;rounded=0;orthogonalLoop=1;jettySize=auto;html=1;" edge="1" parent="1" target="Ds1bHX4ajMFpXZNCiG3D-15">
          <mxGeometry relative="1" as="geometry">
            <mxPoint x="442.75" y="30" as="sourcePoint" />
            <mxPoint x="580" y="120" as="targetPoint" />
          </mxGeometry>
        </mxCell>
        <mxCell id="Ds1bHX4ajMFpXZNCiG3D-15" value="" style="rounded=1;whiteSpace=wrap;html=1;" vertex="1" parent="1">
          <mxGeometry x="550" y="40" width="60" height="60" as="geometry" />
        </mxCell>
        <mxCell id="Ds1bHX4ajMFpXZNCiG3D-17" value="Remote statefile" style="text;html=1;strokeColor=none;fillColor=none;align=center;verticalAlign=middle;whiteSpace=wrap;rounded=0;" vertex="1" parent="1">
          <mxGeometry x="550" y="55" width="60" height="30" as="geometry" />
        </mxCell>
        <mxCell id="Ds1bHX4ajMFpXZNCiG3D-18" value="S3 Bucket" style="text;html=1;strokeColor=none;fillColor=none;align=center;verticalAlign=middle;whiteSpace=wrap;rounded=0;" vertex="1" parent="1">
          <mxGeometry x="511" y="190" width="60" height="30" as="geometry" />
        </mxCell>
        <mxCell id="Ds1bHX4ajMFpXZNCiG3D-24" style="edgeStyle=orthogonalEdgeStyle;rounded=0;orthogonalLoop=1;jettySize=auto;html=1;" edge="1" parent="1" source="Ds1bHX4ajMFpXZNCiG3D-20" target="Ds1bHX4ajMFpXZNCiG3D-23">
          <mxGeometry relative="1" as="geometry" />
        </mxCell>
        <mxCell id="Ds1bHX4ajMFpXZNCiG3D-20" value="" style="shape=image;html=1;verticalAlign=top;verticalLabelPosition=bottom;labelBackgroundColor=#ffffff;imageAspect=0;aspect=fixed;image=https://cdn1.iconfinder.com/data/icons/picons-social/57/github_rounded-128.png" vertex="1" parent="1">
          <mxGeometry x="182" width="38" height="38" as="geometry" />
        </mxCell>
        <mxCell id="Ds1bHX4ajMFpXZNCiG3D-23" value="" style="shape=image;verticalLabelPosition=bottom;labelBackgroundColor=default;verticalAlign=top;aspect=fixed;imageAspect=0;image=https://i1.wp.com/thepracticalsysadmin.com/wp-content/uploads/2020/03/terraform1.png?resize=267%2C267&amp;ssl=1;" vertex="1" parent="1">
          <mxGeometry x="384.5" width="67" height="67" as="geometry" />
        </mxCell>
        <mxCell id="Ds1bHX4ajMFpXZNCiG3D-25" value="Pipeline" style="text;html=1;strokeColor=none;fillColor=none;align=center;verticalAlign=middle;whiteSpace=wrap;rounded=0;" vertex="1" parent="1">
          <mxGeometry x="209" y="13.5" width="110" height="30" as="geometry" />
        </mxCell>
        <mxCell id="Ds1bHX4ajMFpXZNCiG3D-27" value="devops-infra repo" style="rounded=1;whiteSpace=wrap;html=1;" vertex="1" parent="1">
          <mxGeometry x="110" width="72" height="34" as="geometry" />
        </mxCell>
        <mxCell id="Ds1bHX4ajMFpXZNCiG3D-28" value="Terraform" style="text;html=1;strokeColor=none;fillColor=none;align=center;verticalAlign=middle;whiteSpace=wrap;rounded=0;" vertex="1" parent="1">
          <mxGeometry x="388.5" y="48.5" width="60" height="30" as="geometry" />
        </mxCell>
        <mxCell id="Ds1bHX4ajMFpXZNCiG3D-29" value="GitHub" style="text;html=1;strokeColor=none;fillColor=none;align=center;verticalAlign=middle;whiteSpace=wrap;rounded=0;" vertex="1" parent="1">
          <mxGeometry x="170" y="34" width="60" height="30" as="geometry" />
        </mxCell>
        <mxCell id="Ds1bHX4ajMFpXZNCiG3D-30" value="EC2" style="text;html=1;strokeColor=none;fillColor=none;align=center;verticalAlign=middle;whiteSpace=wrap;rounded=0;" vertex="1" parent="1">
          <mxGeometry x="544" y="281.5" width="60" height="30" as="geometry" />
        </mxCell>
        <mxCell id="Ds1bHX4ajMFpXZNCiG3D-31" value="EC2" style="text;html=1;strokeColor=none;fillColor=none;align=center;verticalAlign=middle;whiteSpace=wrap;rounded=0;" vertex="1" parent="1">
          <mxGeometry x="544" y="243.5" width="60" height="30" as="geometry" />
        </mxCell>
        <mxCell id="Ds1bHX4ajMFpXZNCiG3D-51" style="edgeStyle=orthogonalEdgeStyle;rounded=0;orthogonalLoop=1;jettySize=auto;html=1;exitX=1;exitY=0.5;exitDx=0;exitDy=0;" edge="1" parent="1" source="Ds1bHX4ajMFpXZNCiG3D-33" target="Ds1bHX4ajMFpXZNCiG3D-37">
          <mxGeometry relative="1" as="geometry" />
        </mxCell>
        <mxCell id="Ds1bHX4ajMFpXZNCiG3D-60" style="edgeStyle=orthogonalEdgeStyle;rounded=0;orthogonalLoop=1;jettySize=auto;html=1;entryX=0;entryY=0.5;entryDx=0;entryDy=0;" edge="1" parent="1" source="Ds1bHX4ajMFpXZNCiG3D-84" target="Ds1bHX4ajMFpXZNCiG3D-45">
          <mxGeometry relative="1" as="geometry">
            <mxPoint x="39" y="360" as="targetPoint" />
          </mxGeometry>
        </mxCell>
        <mxCell id="Ds1bHX4ajMFpXZNCiG3D-61" style="edgeStyle=orthogonalEdgeStyle;rounded=0;orthogonalLoop=1;jettySize=auto;html=1;entryX=0;entryY=0.5;entryDx=0;entryDy=0;" edge="1" parent="1" source="Ds1bHX4ajMFpXZNCiG3D-49" target="Ds1bHX4ajMFpXZNCiG3D-34">
          <mxGeometry relative="1" as="geometry">
            <mxPoint x="39" y="150" as="targetPoint" />
          </mxGeometry>
        </mxCell>
        <mxCell id="Ds1bHX4ajMFpXZNCiG3D-33" value="" style="shape=image;verticalLabelPosition=bottom;labelBackgroundColor=default;verticalAlign=top;aspect=fixed;imageAspect=0;image=https://wiki.jenkins-ci.org/JENKINS/attachments/2916393/57409617.png;" vertex="1" parent="1">
          <mxGeometry x="15.5" y="196.5" width="47" height="47" as="geometry" />
        </mxCell>
        <mxCell id="Ds1bHX4ajMFpXZNCiG3D-34" value="" style="shape=image;html=1;verticalAlign=top;verticalLabelPosition=bottom;labelBackgroundColor=#ffffff;imageAspect=0;aspect=fixed;image=https://cdn1.iconfinder.com/data/icons/picons-social/57/github_rounded-128.png" vertex="1" parent="1">
          <mxGeometry x="155.75" y="124" width="46.5" height="46.5" as="geometry" />
        </mxCell>
        <mxCell id="Ds1bHX4ajMFpXZNCiG3D-79" style="edgeStyle=orthogonalEdgeStyle;rounded=0;orthogonalLoop=1;jettySize=auto;html=1;entryX=0;entryY=0.5;entryDx=0;entryDy=0;" edge="1" parent="1" source="Ds1bHX4ajMFpXZNCiG3D-36" target="Ds1bHX4ajMFpXZNCiG3D-68">
          <mxGeometry relative="1" as="geometry" />
        </mxCell>
        <mxCell id="Ds1bHX4ajMFpXZNCiG3D-82" style="edgeStyle=orthogonalEdgeStyle;rounded=0;orthogonalLoop=1;jettySize=auto;html=1;entryX=1;entryY=0.5;entryDx=0;entryDy=0;" edge="1" parent="1" source="Ds1bHX4ajMFpXZNCiG3D-36" target="Ds1bHX4ajMFpXZNCiG3D-45">
          <mxGeometry relative="1" as="geometry" />
        </mxCell>
        <mxCell id="Ds1bHX4ajMFpXZNCiG3D-36" value="" style="shape=image;verticalLabelPosition=bottom;labelBackgroundColor=default;verticalAlign=top;aspect=fixed;imageAspect=0;image=data:image/png,iVBORw0KGgoAAAANSUhEUgAAAOEAAADhCAMAAAAJbSJIAAABR1BMVEX////ueUvm9fjQ6PDpZUvscEe2z+rtdEsBAQHl9fixzOn//fzueEnudkbp+Pntbzn1rIfj7Pftcj/xlXXP7PXO4vHoXD/tbTbpYUbz9/vM5u/pZkvI3e/O7/noXkHnVja+1ez2vKrS5fLY7fPrbkv3x7j51sv1tqL63dTw9fvynYD86uT98e3X5PPS4ebxopXwjWnvhVzzqJD74trok3bV2dvbxL7ui3rsfmqUlJTrdF73z8r4zcDzo4j1uabrhmH0pX/iq5ryrKH0t63vl4jhlIleXl5PT0/m5ualpaWMjIzlfWyNSCzsYh/erqTdu7PayMTkpZDfopvjiXzJycl5eXk2Nja3t7cdHR3csa7ikIXVa0AsAABLCwB1MRCeTS07REaScWZrcnQ5HRJvOCMnFA27XzsZDQg3HBFeMB7PqqzOm5znSyU4VqiIAAAV9ElEQVR4nO2d61vbVprAbQI2xhIuspHs9UUGYzC2CTaEQDCQBnIhvSQ0TSfTZnZmt53t7sz0//+8565zlWyQLXWevk8/NLIlzs/v7bznpkzmD/lDZpEalqSbEbvU9jcOGu3cGi+5duNgY//fgLW2cdBGQDqBH7Q3N36/mLWNRo6xYcw2FvpP8kmu8Xuk3Ie6IwTt9uZ2p1NY52Wp09nebATfyR3sJ93kWaR2QJQH1LPdWYJAWoGg2wATU+YOfi+a3MCagXQFE5uIuQ3MGUG2N5JufLTUDgjeZmcKuoCys4kg19Y2063IWoNobxY8Bok1udZIr0cSvvb20qx4FHK7jZ+QTkbCB9R3LzwC2SFPSaGtHuCWFR7ChxiXCGPSQJJsQBdaa9zTPHWMa2tpiqs16D5r7QfrT2Jsp8ZUD1BzHuR/CmMH/WgHSaNhQW3ZjpMPMW7nUqLGjXgNlEMsoJ8ucW/c1CuwUCjEwLidgqAKf2aNAqFtLcXAWICFVjtBvhr6jVUF4k/lq4VCh8rUKl5HQTWxLs6+wUJpdGAXANMjVSBpNCKy1IScEcaYnCZHMMICptPA8ZhRlIVcUmkDZsG2tkmMsBBOxygjINvJIGoBiX/hbyxNhTcF5DqIZ4sPqQdrmhhTWK/VQAjFSqz9xwyEEDIEsbF4RB1gAesO/h9obWdGwFDG9c1FI2oBifvVoPfNjhfOiBAX6IsbKiBRYGY295ueERnqwhBhHpQ1uM4+fRAgEEPMQYgLyos1GEUlDbISoPZQQGNcXW8srHeTUwCZhWYK93RAUQyIMC8uAhD8nZzBBWv3jTCyGLwR/rbzB4RhtKMHvEeCMIpWjYVFFFMwjAqdbQY4hQIrgUQiatW4vYBoI4fRAg2iS+F8AKr5+OTpuxdA3r2/O3nUjKLUIaK0ON+BjbYUZRhgaIgBdCfvn2S9koOkVPI8b/zd+8fNUEgtYnvOrghtlPcQZqKdML7myYus59hWFskKlZL3/F04pM5Q51tn1CQnZIAhLlipPH3uOYRORISQT+7CGA2uOD87lW2UAYbwvc+WeDwoeY5xxXsexrhgO4U2yv+xQiRg826s8MmIK97opDmLFuc4qgEevbk+A2Dl0aWn4RMNFTG+MAZWTbiBdjofQJDreRulfdGOWYG2reVTEZ3xyfSI0E7nkvdrYmeG5gkz4AuDAnWIK957k6WqiJ05BZuGFGbwVWOirzwpmflkV4SI35kQlQ4crDLa8QPWxFRInNA8GPPcCQNUlbhSemIyVNUV1+ZRRzXE7hqxEiPgmLigZdmW1lgtBdGZGnEuSqxJmQJf7UQB2uNRuTzWBhyFECAaDFV1xTkUw6IK6cyEga8yooDlL6B8qdWiilgy+aLsiuubsStR9EKSKExO2DxyBECAqNOiSggiqsFQdZ4Ybzg9EL0QXzRp8L1HXG38BZWRTos6RENelO0UemK8OVHMhfjXM9ho5cSjwaTMCKdV4krWoETZTgsxd2w2xO4Mvmiw0cqY6sv+cnZCx+CKihLb8fZOweO2ZRV2DIDvWCK0I3SoRfQ+6rUoKxH0TtvxAcIRUu7h+KJBhY89BhDlh1pCe2yIp7ISY00YoM8dxJlCqAqbl5y2AjOdqsQgKePpVEqECSO+Yj/HxxmcCw2ZIggzWAjiWE+odE5Dg42kRND/zsUFCOcp7qNCYKf26MsvvhxlDUWGnnBaJbbjM1PRSPG1aC+kjLZtLqK0hCuj6cJpjGba5o0Ul4WGoqnyIqKimIrQlPYlJcZnpjWNkeo1+KhpsseZCJ0XU3VsYDSNp+e2oRqpKc58DK16pyVcyU6VMEDPLaakD7qA2wwQG2lH34JZjdREOKWZgqQfT980x1WGxEhNRYUhK8xK6Lybrv8dU99UdEN8SQ+oRtJ7Etqmal8y0/aDHXG/0TgQ3RD32ExGejejkZoIV+ypKmFUQsEm3lvQ6uac4IahRsp1uh9I6D3W/wXJTLfJhqn7AtbY/rngwaGrnSqXxhHgGQlLd1OZaYe08L7xZoMRBoEGfWAanmk+nzHQGLptINQYOm6ymZIW3jfeMMLcdG74qBnSP5uR0BBMJTOF4/uxELLynmRDA+CjCnHDfH5nZyefn41wBwklNPRqZMJGTIQslEYEmu+AG+7Ul5nUd6IoMeFOXbgJEn433eDwZkyELJSSQGMy0tEK11IiO5GEO8o99Z0FEwahNDTQNE/Oq0pjIxjzGj4o1SmnaeZE2NHb6AeftQ8I316zrfJ8wl3uh6mCaVyEwRONhJXH5y5qWsv162enp2dV3w3aa1IjBay2fL/+9enpeYvd5Z4/1jJ25kGYkwh1gCfo96/69eteEd89nBy6LvMsLSDx2qp/fnOcoXed+i181dUWGPMhZKEUE6qhtHKCLNQ/m4hP6NbdEMQ64Ts9Fm4qXruY0deNnM6ZcN1A+NhFpjZRn3HtGxExYOv8WLmp+BLf5eu0OA/CdlQ6rMAg6p4VdQ8ZLFf1iNgH/ZfaPz1BiNW6xkyTIGz+BKzK1TcVKITmEDHc5DHgjeGuATLU1vdq0kiAsHIHfvCWCZBDFAjDAUHIQR7sqz3wBRDKtVMFOFT1LOQ5Q1dVIrLRkJ8lk+lhQ02CUNJh5UcA4A7DHjTxlcyPWn8e+uev4Q/j/igjLp6wCVTodsOf9LIqKRGp0FejqCDIuhUlLpwQeWE94klDX/JEpMIwG4WCVO/KnjjffKghbL6qLrsXwn23X715/UwcA5OUiAKpPxC+8vGHN6/fig2ASqzK4XQRhKIbwlQo3PZsFclH/tqxL+REaKRScHqN77rlr3WRJy5Ch/R5uhIf9NdEc/u0uqpp7LJgprA74wqZ4gd6F99tQMbtSn23eRAGtYU6pF957y67Qm+NNnX1NX/1sMpHU8VIb9ldz/i7UF/pxwUQBr1dlfBDS2zrCWvrKv+srssRIjcUTPstu+lP8u/SeiUQzqXnHVbjN3+qLvv8TR8DQj7Y9Fwu1OSVZPiV/ne5AXdVT5tzJ+SGvNF1fpym+XV1ucrfZNDhwOcIUaA55T826HACCc8WQBgs7sYfcOmieVaVsqHeD4cKoRCeDH6ICM8FwrmMYoSlfKjDZeEufSxVCQUdBrFUuBpFGNt4qVwCc6Gm+X1VSofU4k6Ei8cKodRXx4h/Fn4WFJ+qXwuEggpjG/OWh6K4UFN5BWKp1O2+ffb657dSOTxRYqmoeeDAX73+4ZN07RpUidWfQgjjmreQ0wVXP1XegXzYi37WdUsm9LVDAqKcwmwhjCuKgaYT28zMtkjI9Woqd+5y6zr6WWdVvk+D8qFmVEcWtestEm7n4iKUJy44R3zsR9V5UIpiv7Q+TWlBkqgvTJZqA829CdkMKTe9RtYLielCqhI0csMnfFIeulE3oYpECqXaQHP/FRlolnutluOXeONPOEcEJX60OupSkb+sdL01gjJMmBsuoVl48N/9lyuglQrCehp19Sww00glkl5pMKCIiFsRf/2wFW6kaD3N/oNWKhDhF2OQjMhF0ybIF6EDUcALW/JQFIqmrcPQu1AKlQpg0UgbcW0n1Syo4bs1UInhFndalVRIlOiHppk6vMs/4QGlGeDY1rWJaxPxJW5tYvODG97Ya1cZaiNJP2yI7hQqvvUqpFMa4xJaEHE2JTMVBmvCB85uyDCUOKyPwml12Yj4Ev0srUeCiHEmxvWl+xoz5WJN5SNk8A0ZnM3NZEVB16pVQ4w6xUPedyHVb5xrhIV13nTrKF9g/IgQdYFj+DWdX5MngrGd6gf2B+coNvkfxHE2xUjj21NyoC5tE8Yymq8gR6uuqPHGrxoAGaJ7Jtt38RDf5Yp9blmFsa7VF/dbaLYeNl8hW3TrN5xjDa6DSWDdVD5BrPpnE64XfnxIJoF9CVBeDxXvBj1xzwy+JpwT0XyH3c31zw9vJr3e5OZlnbTUBMgQl6uuf3bdnfQmk5vTFtW6bKKaNW3t+ADFfU/aXerNuyqZf2+5SLjVGPpZfJYWubta9K6WeycDSipsx3x6hLh3DV8T1+tXHr0KdCZI2IKaHf0trZ8ehU+rxb53Tdx/aNiJ3xypS6KiFkXpGeuavU+axbOxEkrbgMlVaSbxiS0sa4NNjeJDjMo9lrqnRLPEO+Yt+Q2dEiU7PUILaPM7dSQ7kev2AsnvsJvgPzXrvCUVxr8PWN4ITK4KdorWJsYi9pFMKKtwHgebiUqkRwsJhLPutjATKksTRb55qNCwm1tYtjD7QnaTKAtopa0khbmcqSCfi0Gu8oTvYyOUFkHLG57mcy6GfLaJOodReRob4fuQOcP5nW0inU+DXZEPNZW7Gfd1mQnF5QkS4NzOp0FFFHcOVmEJHjjLE57ERShut9Ds4p7X8YlwiJg/wAUeGswrMT5CflGicuzHPE+/Vs76WhIQZ97YZSY0A873TDr5vDYZMS4dctueFA3O97w2dPClcqhR4IiGWPp51r5OyRhl0PGXcz1sV2enDNGwK8h+0zelEQO6UzEBzv3cRPXsSx7RsIXU/lNmpEcsdbXXLatpApz/2Zfq+aWcLzb1p19Yf8lk+joXdfrr2thk0fJQ/jMo18/9tOSGfAZtgAgLRF2D//M2k9lSD29zyplbbWwi5aH6VxZyBi0+R1g9AxciGnZYWn+Faw4HY+EAzKzlHWUyn7RWistDzXmCuYWcI6w9Cxr+vsYC0frbf6H7uo7DPrdLWTjT8d/aG+zLiuk0wYWcBa07zxsjmgrEX+nSk4sRPoa25I3QktTbv+pDEygPVStZ4HneukPnsaWaCsTVN/TWYq+7tdWlO4d+/puWEJSH6sMXeSa7EbFgKBCtX1bllTJIPq5+1n7feafR4IJfHaB9u8VSwVAgWt/IS6SQ3K6u6vcNOxfqYZAQcHNxgOg1T5oXeJhOHPisrALLoFWMfzcQPlXP2Fv8Kzx0iIVjQ9fb+h951SFeDv6rgfBOPk4ogXeUYET5DQn6BA7zBVqW94lNMd3i5e6Gze2lW3mAOwlA3at0jIQgmmJ589XbT2+f/fxn/K9vpiSEeXChPsgj5vg3khWWTCUwjDWqmH4OTyBM7n1P5LV5wgnmRh1a/6sC6pMhJORe2bbeySX5Ar39nPjetYLx2AjrswL4i/GIiRIHuJnoe9cy5N157O2j6+YzhlQ7NX0TlIcBIXyXVTtBvgwqpgJLXQ853MT6uwio786gb47p49Lw/kP6DkusxkI5ZETG5rX4fyHHnlnP15kCU/AOywy21BxSYyH0CB7r8y+RQQb9FOUCU2Aa3kOa4d4lWzgKH1WzPn/zj1/+8c2v+vOvGeFlIWXvkqXvA24U1l9EjRtaSMK/Yx+tF1L2PuAM9EbEGMscqfNicy3RJGgQlLj+GQvhv9bSEEJVge9W/xADYd7551q6DDSQ/fa/nOnXXxj48oCwnWQnJlxunPxUJ2CF8AHC3aQxQqQLCe+NmMdSitinn6i8XMGNfAAfIIzcoJKcXByu0Gbemy+f90KPoEhW6thKZ2fk+PJZJ+IMigRl8tvEzguNnZ0P3GPJWxPTI1V3AgrEGRnz6vfdKbb7JSKnLXcCZxDzmkZPhUe/G7GZJjE5hKcr4AJRbriWUvkSt7Mter/f4mUAN1a4E1Igqq3nCcI/RQvcQ85XSkCKvevDM7TE3p2wAlFPYRZeuXClsOu+vL5JgyaHk+sz322RNfbuZI8rEO+Flw32YbRcv3p605tiR/S84Lovz3/7jT8ecdmfbAXFhTW2puazxiohonR9/zf/7HqSFOaw171+eVb1faBGeLzjYYZfPlK2ohXJfg1uHHIF/mgt8FC/dX56fTMZJKdFKsXBoHfonh8Ct7lghNbzMm10tG1yX846W93TeuvmeJACMo3scq/RUYYW9W6HCfvsy85F9J9JUHps5sK+DBs8lQnLwShdqstDkBYDwqP+LIRBEC6ls0NDZRgQ7s1AaJeDIJzm8hBIkc0gOt0ZzqC3y0EQLqW4PARSZDp0LiihpV/Qx39i94MQ5aUyhAbCGurs0uBhG82VfWL3e4EOU07IhuxLPUa4ZyRkX7kMQpSTNEKEsL5JacCaf2Uk3GKELERZVtIIEULfzwkCBiV0uiZCh8YX+4g5sDVOGiFCmM95RWqczoWRcJcRZmgQtkdJI0QISxFehhH2jITHASGNNHY/aYQIYb0vJ7NHGl0aGAlpfAGEdBmHfZk0QoRQLBAwGOHQSDgMCGmIAv+bbqG9LxAw6P96GdOsr0O9z95jIcrZSxohQlh0LM9CCLBoiHK2kkaIEFoCg4AREBqWllg29T7nKhPklqQRIqQXeBZRp5XNGJZKAULyCVAci7zpLg8zGbqIFtgdJRwbCbPU+wDhFY1L6S4PgxIYtJkQAo80LAYDhH1b+nY21fOjUGj8B+5EXBJ4pIlwTL0v+HbaC+CgBHYuGOFRxjBiAwhJzgSEu+SnSfP8KBaPuRPpdAKPNBGOaLwFhNSB014AZ2j8B+5ECbcEQs5gQSebeB/QOHVgL2mASCEIwJ12mX64It/i4iqIQReMcIiVDzJI2oUQAHcingUSHEfocOP+gLDHvkMcGMTXtAvJcMCdSOuBR3Kjbl4wVgUJjxlhpkR0nDRApBB9lVj3BnhkQCh0cEAeGQSEuPOa+gKYlsBwtIXopzQMikZY/XH/6FPvK+1S8059AUxLYGhshBDYKzcpscVNwAHcIrNk0i1IfQGcIf1LSEgssFTMCJMSx9zkDR1fhYTYge20l4cZkvtAEGE+luEIYY+FDfzDch57H+yMYgdOvx8eka7aHiWE4Z+OZ+DBUBZqIOGYEZLiwkm1mRa7FlcDEcIxR4jiCPNK+DNglcPu9oCOaNhbKe2aDrtlj265t2FWw2UGtFc2dYaGKFiogYR9RshGaizHG3VTB9nbG3vBbnvLgy0mhH2OEGaFINTAQaejgHBYCvKI44330lMKD7p9rxQcmGDZpSyq8bCVQmdjWkOlEZtjhITYgHHZOxyXgs1vllPyyt3ki0VI963nlTix+mSpAW48xKCEpFtNQw20WaxeOkh60c/yj/LAs/vJUhaHRVnYZ8eku3LBDTHiDsslN3BIuudeMP6kPHGY0opxi9QKcDqQEjpX6CP2Txh3iF16V4m2dmYZbmXpYCk0WYaENdULxnKAEumwh32Vuvipl2Jv6zJL04bloRFsSkjGYNhYDv7Qs2mSyPa3ElyoN4VguJKDDc+CIR8PDZIcz+p3Mg5A3HIw8oJbSmnFHO5elZ1vQVSlYdVxsuUrMvTJZpjK5Ns01NCRw8FVOes4LIB6337rlPd202W0SkzlP6OjTyxgkjALuqk8hRJDF9j+B8lWiXblgrKBDr4RP/09y/GRw3qhdqDYIjupzXGO0tM7m1FA3Ok7QTfMFixymA0q/VKpvLWbwtgSLsdX8EioYIjN9voSw6XHfQpC6POrtE/JMAG6K3sQjwmIkpdq53JwWeK/ZIMgOrpKY54QZXhxNBqNyoIcbZk8rbd1JH4V3Ht0kXw98Yf8IQuW/we6p6d+c0CbsQAAAABJRU5ErkJggg==;" vertex="1" parent="1">
          <mxGeometry x="260" y="330" width="59" height="59" as="geometry" />
        </mxCell>
        <mxCell id="Ds1bHX4ajMFpXZNCiG3D-37" value="" style="sketch=0;points=[[0,0,0],[0.25,0,0],[0.5,0,0],[0.75,0,0],[1,0,0],[0,1,0],[0.25,1,0],[0.5,1,0],[0.75,1,0],[1,1,0],[0,0.25,0],[0,0.5,0],[0,0.75,0],[1,0.25,0],[1,0.5,0],[1,0.75,0]];outlineConnect=0;fontColor=#232F3E;gradientColor=#F78E04;gradientDirection=north;fillColor=#D05C17;strokeColor=#ffffff;dashed=0;verticalLabelPosition=bottom;verticalAlign=top;align=center;html=1;fontSize=12;fontStyle=0;aspect=fixed;shape=mxgraph.aws4.resourceIcon;resIcon=mxgraph.aws4.ecr;" vertex="1" parent="1">
          <mxGeometry x="240.5" y="201" width="39" height="39" as="geometry" />
        </mxCell>
        <mxCell id="Ds1bHX4ajMFpXZNCiG3D-40" value="ECR" style="text;html=1;strokeColor=none;fillColor=none;align=center;verticalAlign=middle;whiteSpace=wrap;rounded=0;" vertex="1" parent="1">
          <mxGeometry x="230" y="240" width="60" height="30" as="geometry" />
        </mxCell>
        <mxCell id="Ds1bHX4ajMFpXZNCiG3D-45" value="" style="shape=image;html=1;verticalAlign=top;verticalLabelPosition=bottom;labelBackgroundColor=#ffffff;imageAspect=0;aspect=fixed;image=https://cdn1.iconfinder.com/data/icons/picons-social/57/github_rounded-128.png" vertex="1" parent="1">
          <mxGeometry x="155.75" y="312.5" width="46.5" height="46.5" as="geometry" />
        </mxCell>
        <mxCell id="Ds1bHX4ajMFpXZNCiG3D-46" value="mock-app-infra (chart)" style="text;html=1;strokeColor=none;fillColor=none;align=center;verticalAlign=middle;whiteSpace=wrap;rounded=0;" vertex="1" parent="1">
          <mxGeometry x="141" y="359" width="72" height="30" as="geometry" />
        </mxCell>
        <mxCell id="Ds1bHX4ajMFpXZNCiG3D-52" value="Push Image" style="text;html=1;strokeColor=none;fillColor=none;align=center;verticalAlign=middle;whiteSpace=wrap;rounded=0;" vertex="1" parent="1">
          <mxGeometry x="115.75" y="211.5" width="86.5" height="30" as="geometry" />
        </mxCell>
        <mxCell id="Ds1bHX4ajMFpXZNCiG3D-53" value="mock-app repo" style="text;html=1;strokeColor=none;fillColor=none;align=center;verticalAlign=middle;whiteSpace=wrap;rounded=0;" vertex="1" parent="1">
          <mxGeometry x="146.5" y="171" width="60" height="30" as="geometry" />
        </mxCell>
        <mxCell id="Ds1bHX4ajMFpXZNCiG3D-66" value="" style="edgeStyle=orthogonalEdgeStyle;rounded=0;orthogonalLoop=1;jettySize=auto;html=1;entryX=0;entryY=0.5;entryDx=0;entryDy=0;" edge="1" parent="1" source="Ds1bHX4ajMFpXZNCiG3D-33" target="Ds1bHX4ajMFpXZNCiG3D-49">
          <mxGeometry relative="1" as="geometry">
            <mxPoint x="156" y="147" as="targetPoint" />
            <mxPoint x="63" y="220" as="sourcePoint" />
          </mxGeometry>
        </mxCell>
        <mxCell id="Ds1bHX4ajMFpXZNCiG3D-49" value="POLL SCM" style="text;html=1;strokeColor=none;fillColor=none;align=center;verticalAlign=middle;whiteSpace=wrap;rounded=0;" vertex="1" parent="1">
          <mxGeometry x="40" y="132.25" width="75.75" height="30" as="geometry" />
        </mxCell>
        <mxCell id="Ds1bHX4ajMFpXZNCiG3D-68" value="Application manifests" style="rounded=1;whiteSpace=wrap;html=1;" vertex="1" parent="1">
          <mxGeometry x="380.06" y="370" width="75.88" height="40" as="geometry" />
        </mxCell>
        <mxCell id="Ds1bHX4ajMFpXZNCiG3D-80" value="ArgoCD" style="text;html=1;strokeColor=none;fillColor=none;align=center;verticalAlign=middle;whiteSpace=wrap;rounded=0;" vertex="1" parent="1">
          <mxGeometry x="260" y="380" width="60" height="30" as="geometry" />
        </mxCell>
        <mxCell id="Ds1bHX4ajMFpXZNCiG3D-85" value="" style="edgeStyle=orthogonalEdgeStyle;rounded=0;orthogonalLoop=1;jettySize=auto;html=1;entryX=0;entryY=0.5;entryDx=0;entryDy=0;" edge="1" parent="1" source="Ds1bHX4ajMFpXZNCiG3D-33" target="Ds1bHX4ajMFpXZNCiG3D-84">
          <mxGeometry relative="1" as="geometry">
            <mxPoint x="116" y="336" as="targetPoint" />
            <mxPoint x="63" y="220" as="sourcePoint" />
          </mxGeometry>
        </mxCell>
        <mxCell id="Ds1bHX4ajMFpXZNCiG3D-84" value="Updates helm chart" style="text;html=1;strokeColor=none;fillColor=none;align=center;verticalAlign=middle;whiteSpace=wrap;rounded=0;rotation=0;" vertex="1" parent="1">
          <mxGeometry x="40" y="320.75" width="60" height="30" as="geometry" />
        </mxCell>
      </root>
    </mxGraphModel>
  </diagram>
</mxfile>
